<svg width="164" height="32" xmlns="http://www.w3.org/2000/svg"><g fill="#000" fill-rule="nonzero"><path d="M31.026087 6.05217391V31.1652174h-7.652174L8.76521739 16.0695652v15.026087H.34782609V6.05217391H9.6L22.5391304 19.6869565V6.05217391zM34.7130435 21.1478261c0-6.6782609 5.2173913-10.7826087 13.3565217-10.7826087 8.1391305 0 13.3565218 4.1043478 13.3565218 10.7826087C61.426087 27.8956522 56.2086957 32 48.0695652 32c-8.2086956-.0695652-13.3565217-4.173913-13.3565217-10.8521739zm18.6434782 0c0-2.9217391-2.2260869-4.5217391-5.3565217-4.5217391-3.0608696 0-5.3565217 1.6-5.3565217 4.5217391 0 2.9217391 2.2260869 4.5217391 5.3565217 4.5217391s5.3565217-1.6 5.3565217-4.5217391zM79.373913 31.0956522h-8.6260869l-9.5304348-19.9652174h8.7652174l5.1478261 12.3130435 5.1478261-12.3130435h8.6260869zM103.095652 26.2956522c2.991305 0 4.66087-.6956522 6.539131-2.0173913l4.104347 4.2434782C110.886957 31.0956522 107.130435 32 102.608696 32c-8.6956525 0-13.7739134-4.0347826-13.7739134-10.8521739 0-6.6782609 5.0086957-10.8521739 13.1478264-10.8521739 7.165217 0 12.521739 3.5478261 12.521739 10.6434782 0 .9043479-.139131 1.4608696-.278261 1.9478261H96.7652174c.6956522 2.4347826 2.8521739 3.4086957 6.3304346 3.4086957zm-6.0521737-7.4434783l9.8782607-.0695652c-.695652-1.8782609-2.226087-2.9217391-4.869565-2.9217391-2.5043479 0-4.3130436.973913-5.0086957 2.9913043zM117.704348 5.70434783h8.417391V31.1652174h-8.417391zM149.217391 5.49565217H134.53913v6.74782613h10.156522v18.8521739H153.6V12.0347826c3.408696-.4173913 6.956522-1.2521739 10.226087-4.0347826V.62608696c-3.130435 3.2-7.930435 4.86956521-14.608696 4.86956521z"/></g></svg>