<?xml version="1.0" encoding="utf-8"?>
<!-- Generator: Adobe Illustrator 15.0.0, SVG Export Plug-In . SVG Version: 6.00 Build 0)  -->
<!DOCTYPE svg PUBLIC "-//W3C//DTD SVG 1.1//EN" "http://www.w3.org/Graphics/SVG/1.1/DTD/svg11.dtd">
<svg version="1.1" id="Layer_1" xmlns="http://www.w3.org/2000/svg" xmlns:xlink="http://www.w3.org/1999/xlink" x="0px" y="0px"
	 width="174px" height="25px" viewBox="0 0 174 25" enable-background="new 0 0 174 25" xml:space="preserve">
<g>
<style type="text/css">
	.st0{fill:#FFFFFF;}
	.st1{fill:#21C2F8;}
</style>
	<path class="st1" d="M15.873,23.977c-1.84,0.762-3.768,1.143-5.783,1.143c-3.246,0-5.739-0.969-7.479-2.908S0,17.402,0,13.605
		c0-1.84,0.24-3.504,0.721-4.992s1.166-2.751,2.057-3.788s1.969-1.837,3.234-2.399s2.684-0.844,4.254-0.844
		c1.066,0,2.057,0.091,2.971,0.272s1.793,0.46,2.637,0.835v3.076C15.041,5.309,14.18,4.96,13.289,4.72s-1.863-0.36-2.918-0.36
		c-1.078,0-2.054,0.202-2.927,0.606S5.83,5.956,5.221,6.724S4.143,8.429,3.814,9.536s-0.492,2.37-0.492,3.788
		c0,2.977,0.604,5.221,1.811,6.732s2.977,2.268,5.309,2.268c0.984,0,1.928-0.113,2.83-0.342s1.77-0.549,2.602-0.959V23.977z"/>
	<path class="st0" d="M36.352,15.873c0,1.371-0.193,2.629-0.58,3.771s-0.943,2.121-1.67,2.936s-1.611,1.447-2.654,1.898
		s-2.227,0.676-3.551,0.676c-1.266,0-2.399-0.195-3.401-0.588s-1.852-0.971-2.549-1.732s-1.23-1.705-1.6-2.83
		s-0.554-2.42-0.554-3.885c0-1.371,0.193-2.621,0.58-3.752c0.387-1.132,0.943-2.104,1.67-2.919s1.611-1.447,2.654-1.898
		s2.227-0.677,3.551-0.677c1.266,0,2.399,0.196,3.401,0.589s1.852,0.967,2.549,1.723s1.23,1.696,1.6,2.821
		S36.352,14.42,36.352,15.873z M33.223,16.014c0-1.09-0.12-2.041-0.36-2.855s-0.583-1.495-1.028-2.04s-0.987-0.955-1.626-1.23
		s-1.351-0.413-2.136-0.413c-0.914,0-1.696,0.179-2.347,0.536s-1.184,0.835-1.6,1.433s-0.721,1.293-0.914,2.084
		s-0.29,1.619-0.29,2.486c0,1.09,0.12,2.045,0.36,2.865s0.583,1.504,1.028,2.049s0.984,0.955,1.617,1.23s1.348,0.412,2.145,0.412
		c0.914,0,1.696-0.178,2.347-0.535s1.184-0.836,1.6-1.434s0.721-1.291,0.914-2.082S33.223,16.893,33.223,16.014z"/>
	<path class="st0" d="M39.885,16.383c0-1.5,0.205-2.832,0.615-3.998c0.41-1.167,0.993-2.151,1.749-2.954s1.664-1.412,2.725-1.828
		s2.241-0.624,3.542-0.624c0.563,0,1.116,0.035,1.661,0.105s1.081,0.182,1.608,0.334V0h3.076v24.838h-2.742l-0.105-3.34
		c-0.855,1.242-1.781,2.162-2.777,2.76s-2.074,0.896-3.234,0.896c-1.008,0-1.896-0.211-2.663-0.633s-1.406-1.016-1.916-1.783
		s-0.894-1.691-1.151-2.77S39.885,17.695,39.885,16.383z M43.014,16.189c0,2.133,0.313,3.725,0.94,4.773s1.515,1.572,2.663,1.572
		c0.773,0,1.591-0.346,2.452-1.037s1.767-1.717,2.716-3.076V10.23c-0.504-0.234-1.061-0.413-1.67-0.536S48.902,9.51,48.305,9.51
		c-1.664,0-2.962,0.539-3.894,1.617S43.014,13.893,43.014,16.189z"/>
	<path class="st0" d="M75.48,15.082c0,0.434-0.006,0.797-0.018,1.09s-0.029,0.568-0.053,0.826H63.018c0,1.805,0.504,3.191,1.512,4.158
		s2.461,1.449,4.359,1.449c0.516,0,1.031-0.02,1.547-0.061s1.014-0.098,1.494-0.168s0.94-0.148,1.38-0.236s0.847-0.186,1.222-0.291
		v2.514c-0.832,0.234-1.772,0.426-2.821,0.572s-2.136,0.219-3.261,0.219c-1.512,0-2.813-0.205-3.902-0.615s-1.983-1.004-2.681-1.783
		s-1.213-1.734-1.547-2.865s-0.501-2.412-0.501-3.842c0-1.242,0.179-2.416,0.536-3.523c0.357-1.108,0.879-2.081,1.564-2.919
		s1.526-1.503,2.522-1.995s2.127-0.738,3.393-0.738c1.23,0,2.32,0.193,3.27,0.58s1.749,0.935,2.399,1.644s1.143,1.57,1.477,2.584
		C75.313,12.695,75.48,13.828,75.48,15.082z M72.299,14.643c0.035-0.785-0.041-1.502-0.229-2.152
		c-0.188-0.651-0.478-1.211-0.87-1.68s-0.882-0.835-1.468-1.099s-1.266-0.396-2.039-0.396c-0.668,0-1.277,0.129-1.828,0.387
		s-1.025,0.621-1.424,1.09s-0.721,1.031-0.967,1.688s-0.398,1.377-0.457,2.162H72.299z"/>
	<path class="st1" d="M95.238,5.801c-0.855-0.457-1.734-0.812-2.637-1.063s-1.887-0.378-2.953-0.378c-1.219,0-2.303,0.217-3.252,0.65
		s-1.749,1.046-2.399,1.837s-1.148,1.743-1.494,2.856s-0.519,2.344-0.519,3.691c0,1.406,0.141,2.666,0.422,3.779
		s0.721,2.057,1.318,2.83s1.362,1.365,2.294,1.775s2.048,0.615,3.349,0.615c0.223,0,0.463-0.012,0.721-0.035
		s0.516-0.055,0.773-0.096s0.507-0.092,0.747-0.15s0.454-0.123,0.642-0.193v-7.313h-4.693v-2.584h7.787v11.742
		c-0.48,0.223-0.987,0.422-1.521,0.598s-1.078,0.322-1.635,0.439s-1.11,0.205-1.661,0.264s-1.084,0.088-1.6,0.088
		c-1.57,0-2.985-0.246-4.245-0.738s-2.332-1.221-3.217-2.188s-1.564-2.172-2.039-3.613s-0.712-3.111-0.712-5.01
		c0-1.887,0.264-3.577,0.791-5.071s1.269-2.76,2.224-3.797s2.104-1.828,3.445-2.373s2.821-0.817,4.438-0.817
		c1.031,0,2.013,0.091,2.944,0.272s1.825,0.472,2.681,0.87V5.801z"/>
	<path class="st0" d="M106.172,2.514h-5.221V0h8.314v22.289h5.256v2.549h-14.15v-2.549h5.801V2.514z"/>
	<path class="st0" d="M131.291,24.838l-0.07-2.373c-0.961,0.949-1.937,1.635-2.927,2.057s-2.03,0.633-3.12,0.633
		c-1.008,0-1.869-0.129-2.584-0.387s-1.304-0.611-1.767-1.063s-0.803-0.982-1.02-1.592s-0.325-1.271-0.325-1.986
		c0-1.77,0.659-3.154,1.978-4.156s3.267-1.504,5.845-1.504h3.656V12.92c0-1.043-0.334-1.878-1.002-2.505s-1.688-0.94-3.059-0.94
		c-0.996,0-1.978,0.111-2.944,0.334s-1.966,0.539-2.997,0.949v-2.76c0.387-0.141,0.817-0.278,1.292-0.413s0.976-0.255,1.503-0.36
		s1.078-0.19,1.652-0.255s1.154-0.097,1.74-0.097c1.066,0,2.027,0.117,2.883,0.352s1.579,0.592,2.171,1.072s1.046,1.084,1.362,1.811
		s0.475,1.582,0.475,2.566v12.164H131.291z M130.957,16.805h-3.885c-0.762,0-1.418,0.076-1.969,0.229s-1.002,0.369-1.354,0.65
		s-0.612,0.619-0.782,1.012s-0.255,0.834-0.255,1.326c0,0.34,0.053,0.666,0.158,0.977s0.275,0.586,0.51,0.826s0.539,0.43,0.914,0.57
		s0.832,0.211,1.371,0.211c0.703,0,1.509-0.213,2.417-0.641s1.866-1.105,2.874-2.031V16.805z"/>
	<path class="st0" d="M153.721,20.021c0,0.621-0.105,1.178-0.316,1.67s-0.498,0.93-0.861,1.311s-0.785,0.705-1.266,0.975
		s-0.993,0.492-1.538,0.668s-1.104,0.305-1.679,0.387s-1.137,0.123-1.688,0.123c-1.195,0-2.294-0.053-3.296-0.158
		s-1.983-0.275-2.944-0.51v-2.813c1.031,0.293,2.057,0.516,3.076,0.668s2.033,0.229,3.041,0.229c1.465,0,2.549-0.199,3.252-0.598
		s1.055-0.967,1.055-1.705c0-0.316-0.056-0.6-0.167-0.852s-0.313-0.492-0.606-0.721s-0.747-0.467-1.362-0.713
		s-1.456-0.527-2.522-0.844c-0.797-0.234-1.532-0.5-2.206-0.799s-1.257-0.654-1.749-1.064s-0.879-0.891-1.16-1.441
		s-0.422-1.201-0.422-1.951c0-0.492,0.114-1.031,0.343-1.617s0.618-1.131,1.169-1.635s1.295-0.923,2.232-1.257
		s2.109-0.501,3.516-0.501c0.691,0,1.459,0.038,2.303,0.114s1.723,0.208,2.637,0.396v2.725c-0.961-0.234-1.872-0.407-2.733-0.519
		s-1.608-0.167-2.241-0.167c-0.762,0-1.403,0.059-1.925,0.176s-0.943,0.278-1.266,0.483s-0.554,0.445-0.694,0.721
		s-0.211,0.571-0.211,0.888s0.062,0.604,0.185,0.861s0.352,0.508,0.686,0.748s0.8,0.48,1.397,0.721s1.377,0.5,2.338,0.781
		c1.043,0.305,1.922,0.625,2.637,0.959s1.295,0.705,1.74,1.115s0.765,0.873,0.958,1.389S153.721,19.365,153.721,20.021z"/>
	<path class="st0" d="M173.514,20.021c0,0.621-0.105,1.178-0.316,1.67s-0.498,0.93-0.861,1.311s-0.785,0.705-1.266,0.975
		s-0.993,0.492-1.538,0.668s-1.104,0.305-1.679,0.387s-1.137,0.123-1.688,0.123c-1.195,0-2.294-0.053-3.296-0.158
		s-1.983-0.275-2.944-0.51v-2.813c1.031,0.293,2.057,0.516,3.076,0.668s2.033,0.229,3.041,0.229c1.465,0,2.549-0.199,3.252-0.598
		s1.055-0.967,1.055-1.705c0-0.316-0.056-0.6-0.167-0.852s-0.313-0.492-0.606-0.721s-0.747-0.467-1.362-0.713
		s-1.456-0.527-2.522-0.844c-0.797-0.234-1.532-0.5-2.206-0.799s-1.257-0.654-1.749-1.064s-0.879-0.891-1.16-1.441
		s-0.422-1.201-0.422-1.951c0-0.492,0.114-1.031,0.343-1.617s0.618-1.131,1.169-1.635s1.295-0.923,2.232-1.257
		s2.109-0.501,3.516-0.501c0.691,0,1.459,0.038,2.303,0.114s1.723,0.208,2.637,0.396v2.725c-0.961-0.234-1.872-0.407-2.733-0.519
		s-1.608-0.167-2.241-0.167c-0.762,0-1.403,0.059-1.925,0.176s-0.943,0.278-1.266,0.483s-0.554,0.445-0.694,0.721
		s-0.211,0.571-0.211,0.888s0.062,0.604,0.185,0.861s0.352,0.508,0.686,0.748s0.8,0.48,1.397,0.721s1.377,0.5,2.338,0.781
		c1.043,0.305,1.922,0.625,2.637,0.959s1.295,0.705,1.74,1.115s0.765,0.873,0.958,1.389S173.514,19.365,173.514,20.021z"/>
</g>
</svg>
