<?xml version="1.0" encoding="utf-8"?>
<!-- Generator: Adobe Illustrator 15.0.0, SVG Export Plug-In . SVG Version: 6.00 Build 0)  -->
<!DOCTYPE svg PUBLIC "-//W3C//DTD SVG 1.1//EN" "http://www.w3.org/Graphics/SVG/1.1/DTD/svg11.dtd">
<svg version="1.1" id="Layer_1" xmlns="http://www.w3.org/2000/svg" xmlns:xlink="http://www.w3.org/1999/xlink" x="0px" y="0px"
	 width="425px" height="500px" viewBox="0 0 425 500" enable-background="new 0 0 425 500" xml:space="preserve">
<g>
	<defs>
		<rect id="SVGID_1_" x="21.729" y="1.198" width="306.271" height="305.468"/>
	</defs>
	<clipPath id="SVGID_2_">
		<use xlink:href="#SVGID_1_"  overflow="visible"/>
	</clipPath>
	<g clip-path="url(#SVGID_2_)">
		<path d="M69.755,190.698c0-78.01,63.469-141.479,141.474-141.479c30.593,0,58.958,9.766,82.125,26.338l34.354-34.349
			C314.661,31.01,300.37,22.599,285,16.104c-23.381-9.891-48.197-14.906-73.771-14.906c-25.567,0-50.385,5.016-73.766,14.906
			c-22.567,9.542-42.828,23.203-60.224,40.599c-17.396,17.396-31.058,37.656-40.604,60.224
			c-9.885,23.38-14.901,48.198-14.901,73.771c0,25.568,5.016,50.386,14.901,73.765c6.412,15.156,14.683,29.277,24.693,42.184
			l34.375-34.375C79.365,249.198,69.755,221.052,69.755,190.698"/>
	</g>
</g>
<g>
	<defs>
		<rect id="SVGID_3_" x="94.667" y="166.667" width="306.063" height="213.531"/>
	</defs>
	<clipPath id="SVGID_4_">
		<use xlink:href="#SVGID_3_"  overflow="visible"/>
	</clipPath>
	<g clip-path="url(#SVGID_4_)">
		<path fill="#4BC8F1" d="M399.276,167.052h-22.558v-0.365H269.197l-48.02,48.021h129.489
			c-11.438,66.614-69.61,117.463-139.438,117.463c-30.349,0-58.505-9.609-81.573-25.943L95.281,340.6
			c12.912,10.01,27.026,18.281,42.182,24.688c23.38,9.891,48.198,14.906,73.766,14.906c25.574,0,50.39-5.016,73.771-14.906
			c22.567-9.543,42.828-23.203,60.224-40.6c17.396-17.396,31.058-37.656,40.6-60.225c9.891-23.379,14.906-48.197,14.906-73.765
			C400.729,182.74,400.239,174.849,399.276,167.052"/>
	</g>
</g>
<path d="M220.834,300.24c-64.037,0-115.949-51.912-115.949-115.949c0-38.208,18.484-72.099,46.995-93.224
	c-33.896,20.239-56.599,57.281-56.599,99.63c0,64.037,51.912,115.949,115.948,115.949c25.833,0,49.687-8.449,68.964-22.73
	C262.828,294.281,242.525,300.24,220.834,300.24"/>
<g>
	<g transform="translate(-1.346539, 346.171349)">
		<g>
			<path d="M25.145,115.984c8.828,0,16.469-4.969,20.25-12.239l-8.453-4.38c-2.151,4.229-6.531,7.052-11.797,7.052
				c-7.495,0-13.203-5.786-13.203-13.281s5.708-13.281,13.203-13.281c5.266,0,9.646,2.823,11.797,7.052l8.453-4.38
				c-3.781-7.271-11.422-12.24-20.25-12.24c-12.609,0-22.849,10.24-22.849,22.85S12.536,115.984,25.145,115.984z"/>
		</g>
	</g>
</g>
<g>
	<g transform="translate(40.085991, 346.171349)">
		<g>
			<path d="M38.956,115.984c12.688,0,22.849-10.239,22.849-22.849s-10.162-22.85-22.849-22.85c-12.609,0-22.849,10.24-22.849,22.85
				S26.346,115.984,38.956,115.984z M38.956,106.417c-7.495,0-13.203-5.786-13.203-13.281s5.708-13.281,13.203-13.281
				c7.568,0,13.281,5.786,13.281,13.281S46.523,106.417,38.956,106.417z"/>
		</g>
	</g>
</g>
<g>
	<g transform="translate(84.132925, 346.171349)">
		<g>
			<path d="M32.419,115.39h14.693c12.239,0,22.255-9.942,22.255-22.255S59.351,70.879,47.112,70.879H32.419V115.39z M42.211,106.713
				V79.557h4.823c7.047,0,12.536,5.864,12.536,13.578s-5.489,13.578-12.536,13.578H42.211z"/>
		</g>
	</g>
</g>
<g>
	<g transform="translate(122.784163, 346.171349)">
		<g>
			<path d="M72.454,79.484v-8.604H45.678v44.511h26.776v-8.604H55.47v-9.35h14.537v-8.604H55.47v-9.35H72.454z"/>
		</g>
	</g>
</g>
<g>
	<g transform="translate(13.779382, 372.008158)">
		<g>
			<path d="M16.275,110.096v11.427l-8.599-11.427H6.286v13.906H7.77v-11.427l8.573,11.427h1.391v-13.906H16.275z"/>
		</g>
	</g>
</g>
<g>
	<g transform="translate(28.107724, 372.008158)">
		<g>
			<path d="M18.781,111.534v-1.438h-7.604v13.906h7.604v-1.438h-6.12v-4.797h5.333v-1.438h-5.333v-4.797H18.781z"/>
		</g>
	</g>
</g>
<g>
	<g transform="translate(39.414316, 372.008158)">
		<g>
			<path d="M24.263,124.003l-4.75-7.047l4.636-6.859h-1.787l-3.662,5.63l-3.641-5.63h-1.781l4.609,6.859l-4.729,7.047h1.813
				l3.729-5.817l3.755,5.817H24.263z"/>
		</g>
	</g>
</g>
<g>
	<g transform="translate(50.981394, 372.008158)">
		<g>
			<path d="M26.379,110.096h-9.177v1.484h3.849v12.422h1.484v-12.422h3.844V110.096z"/>
		</g>
	</g>
</g>
<g>
	<g transform="translate(61.384931, 372.008158)">
	</g>
</g>
<g>
	<g transform="translate(68.784088, 372.008158)">
		<g>
			<path d="M31.251,116.632v1.391h5.583c-0.438,2.688-2.755,4.683-5.563,4.683c-3.13,0-5.656-2.505-5.656-5.656
				s2.526-5.656,5.656-5.656c2.109,0,3.964,1.136,4.917,2.849l1.271-0.719c-1.203-2.15-3.521-3.614-6.188-3.614
				c-3.963,0-7.141,3.198-7.141,7.141c0,3.938,3.177,7.141,7.141,7.141c3.943,0,7.141-3.203,7.141-7.141v-0.417H31.251z"/>
		</g>
	</g>
</g>
<g>
	<g transform="translate(84.484371, 372.008158)">
		<g>
			<path d="M37.573,111.534v-1.438h-7.604v13.906h7.604v-1.438h-6.12v-4.797h5.333v-1.438h-5.333v-4.797H37.573z"/>
		</g>
	</g>
</g>
<g>
	<g transform="translate(95.790965, 372.008158)">
		<g>
			<path d="M43.613,110.096v11.427l-8.599-11.427h-1.391v13.906h1.484v-11.427l8.573,11.427h1.391v-13.906H43.613z"/>
		</g>
	</g>
</g>
<g>
	<g transform="translate(110.119309, 372.008158)">
		<g>
			<path d="M46.118,111.534v-1.438h-7.604v13.906h7.604v-1.438h-6.12v-4.797h5.333v-1.438h-5.333v-4.797H46.118z"/>
		</g>
	</g>
</g>
<g>
	<g transform="translate(121.425903, 372.008158)">
		<g>
			<path d="M47.798,117.654c1.833-0.256,3.224-1.787,3.224-3.667c0-2.177-1.74-3.891-3.87-3.891h-4.984v13.906h1.484v-6.281h2.62
				l3.938,6.281h1.692L47.798,117.654z M43.652,116.304v-4.724h3.406c1.391,0,2.479,0.969,2.479,2.364
				c0,1.412-1.068,2.359-2.479,2.359H43.652z"/>
		</g>
	</g>
</g>
<g>
	<g transform="translate(133.357678, 372.008158)">
		<g>
			<path d="M54.536,124.003h1.62l-5.026-13.906h-1.646l-5.031,13.906h1.625l1.136-3.245h6.188L54.536,124.003z M47.697,119.341
				l2.62-7.484l2.594,7.484H47.697z"/>
		</g>
	</g>
</g>
<g>
	<g transform="translate(145.341564, 372.008158)">
		<g>
			<path d="M57.833,110.096h-9.177v1.484h3.849v12.422h1.484v-12.422h3.844V110.096z"/>
		</g>
	</g>
</g>
<g>
	<g transform="translate(155.745093, 372.008158)">
		<g>
			<path d="M53.722,124.003h1.484v-13.906h-1.484V124.003z"/>
		</g>
	</g>
</g>
<g>
	<g transform="translate(162.762179, 372.008158)">
		<g>
			<path d="M62.531,124.19c3.963,0,7.141-3.203,7.141-7.141c0-3.942-3.178-7.141-7.141-7.141c-3.943,0-7.141,3.198-7.141,7.141
				C55.39,120.987,58.587,124.19,62.531,124.19z M62.531,122.706c-3.131,0-5.656-2.505-5.656-5.656s2.525-5.656,5.656-5.656
				c3.15,0,5.656,2.505,5.656,5.656S65.681,122.706,62.531,122.706z"/>
		</g>
	</g>
</g>
<g>
	<g transform="translate(178.392989, 372.008158)">
		<g>
			<path d="M71.146,110.096v11.427l-8.599-11.427h-1.391v13.906h1.484v-11.427l8.573,11.427h1.391v-13.906H71.146z"/>
		</g>
	</g>
</g>
<g>
	<g transform="translate(192.721325, 372.008158)">
	</g>
</g>
<g>
	<g transform="translate(200.120474, 372.008158)">
		<g>
			<path d="M68.399,124.003h3.803c3.822,0,6.953-3.104,6.953-6.953s-3.131-6.953-6.953-6.953h-3.803V124.003z M69.858,122.518
				v-10.938h2.317c3.083,0,5.495,2.339,5.495,5.469s-2.412,5.469-5.495,5.469H69.858z"/>
		</g>
	</g>
</g>
<g>
	<g transform="translate(213.51103, 372.008158)">
		<g>
			<path d="M80.582,111.534v-1.438h-7.604v13.906h7.604v-1.438h-6.12v-4.797h5.334v-1.438h-5.334v-4.797H80.582z"/>
		</g>
	</g>
</g>
<g>
	<g transform="translate(224.817616, 372.008158)">
		<g>
			<path d="M85.022,110.096l-4.219,12.005l-4.219-12.005h-1.646l5.031,13.906h1.646l5.026-13.906H85.022z"/>
		</g>
	</g>
</g>
<g>
	<g transform="translate(236.801493, 372.008158)">
	</g>
</g>
<g>
	<g transform="translate(244.200642, 372.008158)">
		<g>
			<path d="M90.786,110.096h-9.177v1.484h3.849v12.422h1.484v-12.422h3.844V110.096z"/>
		</g>
	</g>
</g>
<g>
	<g transform="translate(254.604172, 372.008158)">
		<g>
			<path d="M93.144,124.19c3.964,0,7.141-3.203,7.141-7.141c0-3.942-3.177-7.141-7.141-7.141c-3.942,0-7.141,3.198-7.141,7.141
				C86.003,120.987,89.201,124.19,93.144,124.19z M93.144,122.706c-3.13,0-5.656-2.505-5.656-5.656s2.526-5.656,5.656-5.656
				c3.151,0,5.656,2.505,5.656,5.656S96.295,122.706,93.144,122.706z"/>
		</g>
	</g>
</g>
<g>
	<g transform="translate(270.234982, 372.008158)">
		<g>
			<path d="M98.355,124.19c3.963,0,7.141-3.203,7.141-7.141c0-3.942-3.178-7.141-7.141-7.141c-3.943,0-7.141,3.198-7.141,7.141
				C91.214,120.987,94.411,124.19,98.355,124.19z M98.355,122.706c-3.131,0-5.656-2.505-5.656-5.656s2.525-5.656,5.656-5.656
				c3.15,0,5.656,2.505,5.656,5.656S101.505,122.706,98.355,122.706z"/>
		</g>
	</g>
</g>
<g>
	<g transform="translate(285.865792, 372.008158)">
		<g>
			<path d="M98.465,122.518v-12.422h-1.484v13.906h6.651v-1.484H98.465z"/>
		</g>
	</g>
</g>
<g>
	<g transform="translate(295.487841, 372.008158)">
		<g>
			<path d="M103.689,124.19c2.364,0,4.286-1.417,4.286-3.849c0-4.729-6.766-3.573-6.766-6.886c0-1.391,1.136-2.063,2.433-2.063
				c1.067,0,1.947,0.442,2.505,1.229l1.156-0.975c-0.766-0.974-2.109-1.739-3.708-1.739c-2.131,0-3.87,1.391-3.87,3.661
				c0,4.475,6.766,3.365,6.766,6.818c0,1.484-1.224,2.317-2.781,2.317c-1.573,0-2.708-0.859-3.198-2.136l-1.344,0.792
				C99.886,123.076,101.626,124.19,103.689,124.19z"/>
		</g>
	</g>
</g>
<g>
	<g transform="translate(152.08692, 346.171349)">
		<g>
			<path fill="#4BC8F1" d="M76.29,90.984v7.641h12.238c-2.078,4.672-6.676,7.792-12.166,7.792c-7.49,0-13.275-5.786-13.275-13.281
				s5.785-13.281,13.275-13.281c5.266,0,9.572,2.823,11.797,7.052l8.459-4.38c-3.859-7.271-11.5-12.24-20.256-12.24
				c-12.682,0-22.849,10.24-22.849,22.85s10.167,22.849,22.849,22.849c12.615,0,22.85-10.239,22.85-22.849v-2.151H76.29z"/>
		</g>
	</g>
</g>
<g>
	<g transform="translate(196.189478, 346.171349)">
		<g>
			<path fill="#4BC8F1" d="M79.562,106.713V70.879h-9.791v44.511h24.557v-8.677H79.562z"/>
		</g>
	</g>
</g>
<g>
	<g transform="translate(223.604304, 346.171349)">
		<g>
			<path fill="#4BC8F1" d="M106.139,115.39h10.458l-16.025-44.511H89.592L73.571,115.39h10.458l2.745-8.385h16.619L106.139,115.39z
				 M89.373,98.849l5.708-17.656l5.714,17.656H89.373z"/>
		</g>
	</g>
</g>
<g>
	<g transform="translate(260.030515, 346.171349)">
		<g>
			<path fill="#4BC8F1" d="M104.776,115.984c8.313,0,15.359-4.896,15.359-13.203c0-16.469-20.475-12.391-20.475-20.104
				c0-2.526,1.928-3.709,4.303-3.709c2.521,0,5.041,1.406,7.271,3.854l6.526-6.229c-3.266-3.786-8.234-6.308-13.725-6.308
				c-7.047,0-14.244,4.23-14.244,13.131c0,15.136,20.552,11.5,20.552,19.286c0,2.448-2.078,4.084-5.489,4.084
				c-4.084,0-7.271-2.303-8.906-5.787l-8.084,5.042C90.755,111.609,96.989,115.984,104.776,115.984z"/>
		</g>
	</g>
</g>
<g>
	<g transform="translate(292.006656, 346.171349)">
		<g>
			<path fill="#4BC8F1" d="M115.435,115.984c8.313,0,15.359-4.896,15.359-13.203c0-16.469-20.475-12.391-20.475-20.104
				c0-2.526,1.928-3.709,4.303-3.709c2.521,0,5.041,1.406,7.271,3.854l6.526-6.229c-3.266-3.786-8.234-6.308-13.725-6.308
				c-7.047,0-14.244,4.23-14.244,13.131c0,15.136,20.552,11.5,20.552,19.286c0,2.448-2.078,4.084-5.489,4.084
				c-4.084,0-7.271-2.303-8.906-5.787l-8.084,5.042C101.413,111.609,107.648,115.984,115.435,115.984z"/>
		</g>
	</g>
</g>
</svg>
