<?xml version="1.0"?>
<svg width="425" height="50" xmlns="http://www.w3.org/2000/svg" xmlns:svg="http://www.w3.org/2000/svg">
 <g class="layer">
  <title>Layer 1</title>
  <g id="svg_1">
   <g id="svg_2" transform="translate(-1.34654, 346.171)">
    <g id="svg_3">
     <path d="m25.645,-298.266c8.828,0 16.469,-4.969 20.25,-12.239l-8.453,-4.38c-2.151,4.229 -6.531,7.052 -11.797,7.052c-7.495,0 -13.203,-5.786 -13.203,-13.281s5.708,-13.281 13.203,-13.281c5.266,0 9.646,2.823 11.797,7.052l8.453,-4.38c-3.781,-7.271 -11.422,-12.24 -20.25,-12.24c-12.609,0 -22.849,10.24 -22.849,22.85s10.24,22.847 22.849,22.847z" fill="#000" id="svg_4"/>
    </g>
   </g>
  </g>
  <g id="svg_5">
   <g id="svg_6" transform="translate(40.086, 346.171)">
    <g id="svg_7">
     <path d="m39.456,-298.266c12.688,0 22.849,-10.239 22.849,-22.849s-10.162,-22.85 -22.849,-22.85c-12.609,0 -22.849,10.24 -22.849,22.85s10.239,22.849 22.849,22.849zm0,-9.567c-7.495,0 -13.203,-5.786 -13.203,-13.281s5.708,-13.281 13.203,-13.281c7.568,0 13.281,5.786 13.281,13.281s-5.714,13.281 -13.281,13.281z" fill="#000" id="svg_8"/>
    </g>
   </g>
  </g>
  <g id="svg_9">
   <g id="svg_10" transform="translate(84.1329, 346.171)">
    <g id="svg_11">
     <path d="m32.919,-298.86l14.693,0c12.239,0 22.255,-9.942 22.255,-22.255s-10.016,-22.256 -22.255,-22.256l-14.693,0l0,44.511zm9.792,-8.677l0,-27.156l4.823,0c7.047,0 12.536,5.864 12.536,13.578s-5.489,13.578 -12.536,13.578l-4.823,0z" fill="#000" id="svg_12"/>
    </g>
   </g>
  </g>
  <g id="svg_13">
   <g id="svg_14" transform="translate(122.784, 346.171)">
    <g id="svg_15">
     <path d="m72.954,-334.766l0,-8.604l-26.776,0l0,44.511l26.776,0l0,-8.604l-16.984,0l0,-9.35l14.537,0l0,-8.604l-14.537,0l0,-9.35l16.984,0l0,0.001z" fill="#000" id="svg_16"/>
    </g>
   </g>
  </g>
  <g id="svg_17">
   <g id="svg_18" transform="translate(152.087, 346.171)">
    <g id="svg_19">
     <path d="m76.79,-323.266l0,7.641l12.238,0c-2.078,4.672 -6.676,7.792 -12.166,7.792c-7.49,0 -13.275,-5.786 -13.275,-13.281s5.785,-13.281 13.275,-13.281c5.266,0 9.572,2.823 11.797,7.052l8.459,-4.38c-3.859,-7.271 -11.5,-12.24 -20.256,-12.24c-12.682,0 -22.849,10.24 -22.849,22.85s10.167,22.849 22.849,22.849c12.615,0 22.85,-10.239 22.85,-22.849l0,-2.151l-22.922,0l0,-0.002z" fill="#4BC8F1" id="svg_20"/>
    </g>
   </g>
  </g>
  <g id="svg_21">
   <g id="svg_22" transform="translate(196.189, 346.171)">
    <g id="svg_23">
     <path d="m80.062,-307.537l0,-35.834l-9.791,0l0,44.511l24.557,0l0,-8.677l-14.766,0z" fill="#4BC8F1" id="svg_24"/>
    </g>
   </g>
  </g>
  <g id="svg_25">
   <g id="svg_26" transform="translate(223.604, 346.171)">
    <g id="svg_27">
     <path d="m106.639,-298.86l10.458,0l-16.025,-44.511l-10.98,0l-16.021,44.511l10.458,0l2.745,-8.385l16.619,0l2.746,8.385zm-16.766,-16.541l5.708,-17.656l5.714,17.656l-11.422,0z" fill="#4BC8F1" id="svg_28"/>
    </g>
   </g>
  </g>
  <g id="svg_29">
   <g id="svg_30" transform="translate(260.031, 346.171)">
    <g id="svg_31">
     <path d="m105.276,-298.266c8.313,0 15.359,-4.896 15.359,-13.203c0,-16.469 -20.475,-12.391 -20.475,-20.104c0,-2.526 1.928,-3.709 4.303,-3.709c2.521,0 5.041,1.406 7.271,3.854l6.526,-6.229c-3.266,-3.786 -8.234,-6.308 -13.725,-6.308c-7.047,0 -14.244,4.229 -14.244,13.131c0,15.136 20.552,11.5 20.552,19.286c0,2.448 -2.078,4.084 -5.489,4.084c-4.084,0 -7.271,-2.303 -8.906,-5.787l-8.084,5.042c2.891,5.568 9.125,9.943 16.912,9.943z" fill="#4BC8F1" id="svg_32"/>
    </g>
   </g>
  </g>
  <g id="svg_33">
   <g id="svg_34" transform="translate(292.007, 346.171)">
    <g id="svg_35">
     <path d="m115.935,-298.266c8.313,0 15.359,-4.896 15.359,-13.203c0,-16.469 -20.475,-12.391 -20.475,-20.104c0,-2.526 1.928,-3.709 4.303,-3.709c2.521,0 5.041,1.406 7.271,3.854l6.526,-6.229c-3.266,-3.786 -8.234,-6.308 -13.725,-6.308c-7.047,0 -14.244,4.229 -14.244,13.131c0,15.136 20.552,11.5 20.552,19.286c0,2.448 -2.078,4.084 -5.489,4.084c-4.084,0 -7.271,-2.303 -8.906,-5.787l-8.084,5.042c2.89,5.568 9.125,9.943 16.912,9.943z" fill="#4BC8F1" id="svg_36"/>
    </g>
   </g>
  </g>
 </g>

</svg>